<svg width="300" height="50" viewBox="0 0 300 50" fill="none" xmlns="http://www.w3.org/2000/svg">
<rect width="300" height="50" rx="10" fill="url(#paint0_radial)"/>
<path d="M116.463 31.3593C114.937 31.3593 113.559 31.022 112.327 30.3473C111.109 29.6726 110.149 28.7413 109.445 27.5533C108.755 26.3506 108.411 25.0086 108.411 23.5273C108.411 22.046 108.755 20.7113 109.445 19.5233C110.149 18.3206 111.117 17.382 112.349 16.7073C113.581 16.0326 114.959 15.6953 116.485 15.6953C117.629 15.6953 118.685 15.886 119.653 16.2673C120.621 16.6486 121.442 17.206 122.117 17.9393L121.083 18.9733C119.88 17.756 118.362 17.1473 116.529 17.1473C115.311 17.1473 114.204 17.426 113.207 17.9833C112.209 18.5406 111.425 19.3033 110.853 20.2713C110.295 21.2393 110.017 22.3246 110.017 23.5273C110.017 24.73 110.295 25.8153 110.853 26.7833C111.425 27.7513 112.209 28.514 113.207 29.0713C114.204 29.6286 115.311 29.9073 116.529 29.9073C118.377 29.9073 119.895 29.2913 121.083 28.0593L122.117 29.0933C121.442 29.8266 120.613 30.3913 119.631 30.7873C118.663 31.1686 117.607 31.3593 116.463 31.3593ZM131.153 19.5673C132.605 19.5673 133.756 19.9926 134.607 20.8433C135.472 21.6793 135.905 22.904 135.905 24.5173V31.2273H134.343V24.6713C134.343 23.4686 134.042 22.552 133.441 21.9213C132.84 21.2906 131.982 20.9753 130.867 20.9753C129.62 20.9753 128.63 21.3493 127.897 22.0973C127.178 22.8306 126.819 23.85 126.819 25.1553V31.2273H125.257V14.9033H126.819V21.6793C127.244 21.0046 127.831 20.484 128.579 20.1173C129.327 19.7506 130.185 19.5673 131.153 19.5673ZM144.194 19.5673C145.704 19.5673 146.863 19.9486 147.67 20.7113C148.476 21.4593 148.88 22.574 148.88 24.0553V31.2273H147.384V29.4233C147.032 30.0246 146.511 30.494 145.822 30.8313C145.147 31.1686 144.34 31.3373 143.402 31.3373C142.111 31.3373 141.084 31.0293 140.322 30.4133C139.559 29.7973 139.178 28.9833 139.178 27.9713C139.178 26.9886 139.53 26.1966 140.234 25.5953C140.952 24.994 142.089 24.6933 143.644 24.6933H147.318V23.9893C147.318 22.992 147.039 22.2366 146.482 21.7233C145.924 21.1953 145.11 20.9313 144.04 20.9313C143.306 20.9313 142.602 21.056 141.928 21.3053C141.253 21.54 140.674 21.87 140.19 22.2953L139.486 21.1293C140.072 20.6306 140.776 20.2493 141.598 19.9853C142.419 19.7066 143.284 19.5673 144.194 19.5673ZM143.644 30.1053C144.524 30.1053 145.279 29.9073 145.91 29.5113C146.54 29.1006 147.01 28.514 147.318 27.7513V25.8593H143.688C141.708 25.8593 140.718 26.5486 140.718 27.9273C140.718 28.602 140.974 29.1373 141.488 29.5333C142.001 29.9146 142.72 30.1053 143.644 30.1053ZM159.018 19.5673C160.47 19.5673 161.622 19.9926 162.472 20.8433C163.338 21.6793 163.77 22.904 163.77 24.5173V31.2273H162.208V24.6713C162.208 23.4686 161.908 22.552 161.306 21.9213C160.705 21.2906 159.847 20.9753 158.732 20.9753C157.486 20.9753 156.496 21.3493 155.762 22.0973C155.044 22.8306 154.684 23.85 154.684 25.1553V31.2273H153.122V19.6553H154.618V21.7893C155.044 21.0853 155.63 20.5426 156.378 20.1613C157.141 19.7653 158.021 19.5673 159.018 19.5673ZM178.768 19.6553V29.8193C178.768 31.7846 178.284 33.2366 177.316 34.1753C176.363 35.1286 174.918 35.6053 172.982 35.6053C171.911 35.6053 170.892 35.444 169.924 35.1213C168.971 34.8133 168.193 34.3806 167.592 33.8233L168.384 32.6353C168.941 33.134 169.616 33.5226 170.408 33.8013C171.215 34.08 172.058 34.2193 172.938 34.2193C174.405 34.2193 175.483 33.8746 176.172 33.1853C176.861 32.5106 177.206 31.4546 177.206 30.0173V28.5433C176.722 29.2766 176.084 29.834 175.292 30.2153C174.515 30.5966 173.649 30.7873 172.696 30.7873C171.611 30.7873 170.621 30.5526 169.726 30.0833C168.846 29.5993 168.149 28.932 167.636 28.0813C167.137 27.216 166.888 26.2406 166.888 25.1553C166.888 24.07 167.137 23.102 167.636 22.2513C168.149 21.4006 168.846 20.7406 169.726 20.2713C170.606 19.802 171.596 19.5673 172.696 19.5673C173.679 19.5673 174.566 19.7653 175.358 20.1613C176.15 20.5573 176.788 21.1293 177.272 21.8773V19.6553H178.768ZM172.85 29.4013C173.686 29.4013 174.441 29.2253 175.116 28.8733C175.791 28.5066 176.311 28.0006 176.678 27.3553C177.059 26.71 177.25 25.9766 177.25 25.1553C177.25 24.334 177.059 23.608 176.678 22.9773C176.311 22.332 175.791 21.8333 175.116 21.4813C174.456 21.1146 173.701 20.9313 172.85 20.9313C172.014 20.9313 171.259 21.1073 170.584 21.4593C169.924 21.8113 169.403 22.31 169.022 22.9553C168.655 23.6006 168.472 24.334 168.472 25.1553C168.472 25.9766 168.655 26.71 169.022 27.3553C169.403 28.0006 169.924 28.5066 170.584 28.8733C171.259 29.2253 172.014 29.4013 172.85 29.4013ZM193.212 25.9253H183.532C183.62 27.128 184.082 28.1033 184.918 28.8513C185.754 29.5846 186.81 29.9513 188.086 29.9513C188.805 29.9513 189.465 29.8266 190.066 29.5773C190.667 29.3133 191.188 28.932 191.628 28.4333L192.508 29.4453C191.995 30.0613 191.349 30.5306 190.572 30.8533C189.809 31.176 188.966 31.3373 188.042 31.3373C186.854 31.3373 185.798 31.088 184.874 30.5893C183.965 30.076 183.253 29.372 182.74 28.4773C182.227 27.5826 181.97 26.5706 181.97 25.4413C181.97 24.312 182.212 23.3 182.696 22.4053C183.195 21.5106 183.869 20.814 184.72 20.3153C185.585 19.8166 186.553 19.5673 187.624 19.5673C188.695 19.5673 189.655 19.8166 190.506 20.3153C191.357 20.814 192.024 21.5106 192.508 22.4053C192.992 23.2853 193.234 24.2973 193.234 25.4413L193.212 25.9253ZM187.624 20.9093C186.509 20.9093 185.571 21.2686 184.808 21.9873C184.06 22.6913 183.635 23.6153 183.532 24.7593H191.738C191.635 23.6153 191.203 22.6913 190.44 21.9873C189.692 21.2686 188.753 20.9093 187.624 20.9093Z" fill="white"/>
<defs>
<radialGradient id="paint0_radial" cx="0" cy="0" r="1" gradientUnits="userSpaceOnUse" gradientTransform="translate(81.75 128.409) rotate(-57.3647) scale(204.435 1517.54)">
<stop stop-color="#890084"/>
<stop offset="1" stop-color="#CD0138"/>
</radialGradient>
</defs>
</svg>
