<svg width="26" height="26" viewBox="0 0 26 26" fill="none" xmlns="http://www.w3.org/2000/svg">
<path d="M17.7055 16.2939C18.0961 16.6845 18.0961 17.3172 17.7055 17.7078C17.5118 17.9031 17.2555 18 16.9993 18C16.7431 18 16.4875 17.9024 16.2925 17.7071L12.9996 14.4159L9.70705 17.7063C9.51176 17.9031 9.25584 18 8.99992 18C8.744 18 8.4884 17.9031 8.29295 17.7063C7.90235 17.3157 7.90235 16.6829 8.29295 16.2923L11.5864 12.9988L8.29295 9.7069C7.90235 9.3163 7.90235 8.68354 8.29295 8.29295C8.68354 7.90235 9.3163 7.90235 9.7069 8.29295L12.9996 11.588L16.2931 8.29451C16.6837 7.90391 17.3165 7.90391 17.7071 8.29451C18.0976 8.6851 18.0976 9.31787 17.7071 9.70846L14.4136 13.002L17.7055 16.2939Z" fill="white"/>
</svg>
