<svg width="25" height="26" viewBox="0 0 25 26" fill="none" xmlns="http://www.w3.org/2000/svg">
<path d="M8.62684 23.7529V19.8841C8.62684 18.8965 9.42359 18.0959 10.4064 18.0959H13.9991C14.4711 18.0959 14.9237 18.2843 15.2575 18.6197C15.5912 18.955 15.7787 19.4098 15.7787 19.8841V23.7529C15.7757 24.1634 15.936 24.5582 16.2238 24.8496C16.5117 25.141 16.9034 25.3049 17.312 25.3049H19.7632C20.9079 25.3079 22.0068 24.853 22.8173 24.0407C23.6278 23.2283 24.0834 22.1253 24.0834 20.975V9.9535C24.0834 9.0243 23.6735 8.14291 22.9641 7.54676L14.6259 0.855139C13.1754 -0.318131 11.0973 -0.280249 9.69011 0.945111L1.54214 7.54676C0.7993 8.12534 0.355314 9.00934 0.333374 9.9535V20.9638C0.333374 23.3613 2.2676 25.3049 4.65359 25.3049H7.04873C7.89741 25.3049 8.58712 24.6169 8.59327 23.7641L8.62684 23.7529Z" fill="white"/>
</svg>
