<svg width="25" height="26" viewBox="0 0 25 26" fill="none" xmlns="http://www.w3.org/2000/svg">
<path d="M8.62672 23.7529V19.8841C8.62672 18.8965 9.42347 18.0959 10.4063 18.0959H13.999C14.471 18.0959 14.9236 18.2843 15.2574 18.6197C15.5911 18.955 15.7786 19.4098 15.7786 19.8841V23.7529C15.7756 24.1634 15.9359 24.5582 16.2237 24.8496C16.5116 25.141 16.9033 25.3049 17.3119 25.3049H19.7631C20.9078 25.3079 22.0067 24.853 22.8172 24.0407C23.6277 23.2283 24.0833 22.1253 24.0833 20.975V9.9535C24.0833 9.0243 23.6734 8.14291 22.964 7.54676L14.6258 0.855139C13.1753 -0.318131 11.0972 -0.280249 9.68999 0.945111L1.54202 7.54676C0.799178 8.12534 0.355192 9.00934 0.333252 9.9535V20.9638C0.333252 23.3613 2.26748 25.3049 4.65347 25.3049H7.04861C7.89729 25.3049 8.587 24.6169 8.59315 23.7641L8.62672 23.7529Z" fill="#868686"/>
</svg>
