<svg width="45" height="45" viewBox="0 0 45 45" fill="none" xmlns="http://www.w3.org/2000/svg">
<path d="M22.4987 0C12.9046 0 4.71428 6.0071 1.47921 14.4643H4.95857C5.90236 12.4067 7.21429 10.5117 8.86272 8.86319C12.5052 5.2205 17.3479 3.21429 22.4987 3.21429C27.6502 3.21429 32.4935 5.2205 36.1364 8.86329C39.7794 12.5061 41.7856 17.349 41.7856 22.5C41.7856 27.6514 39.7794 32.4945 36.1366 36.1371C32.4937 39.7797 27.6503 41.7857 22.4987 41.7857C17.3477 41.7857 12.505 39.7797 8.86262 36.1372C7.21409 34.4887 5.90216 32.5935 4.95816 30.5357H1.479C4.71398 38.9934 12.9044 45 22.4988 45C34.9254 45 44.9999 34.9267 44.9999 22.5C44.9999 10.0746 34.9254 0 22.4987 0Z" fill="white"/>
<path d="M17.5644 29.3186L19.8372 31.5914L28.9286 22.5L19.8372 13.4086L17.5643 15.6815L22.7757 20.8929H0V24.1072H22.7757L17.5644 29.3186Z" fill="white"/>
</svg>
