<svg width="448" height="448" viewBox="0 0 448 448" fill="none" xmlns="http://www.w3.org/2000/svg">
<path d="M223.988 0C128.473 0 46.9341 59.804 14.7271 144H49.3661C58.7621 123.516 71.8231 104.65 88.2341 88.238C124.497 51.973 172.709 32 223.988 32C275.274 32 323.492 51.973 359.759 88.239C396.027 124.505 416 172.719 416 224C416 275.285 396.027 323.501 359.761 359.765C323.494 396.029 275.275 416 223.988 416C172.707 416 124.495 396.029 88.2331 359.766C71.8211 343.354 58.7601 324.486 49.3621 304H14.7251C46.9311 388.201 128.471 448 223.989 448C347.703 448 448 347.715 448 224C448 100.298 347.703 0 223.988 0Z" fill="white"/>
<path d="M174.863 291.883L197.49 314.51L288 224L197.49 133.49L174.862 156.118L226.745 208H0V240H226.745L174.863 291.883Z" fill="white"/>
</svg>
