<svg width="512" height="512" viewBox="0 0 512 512" fill="none" xmlns="http://www.w3.org/2000/svg">
<path d="M255.988 32C160.473 32 78.9341 91.804 46.7271 176H81.3661C90.7621 155.516 103.823 136.65 120.234 120.238C156.497 83.973 204.709 64 255.988 64C307.274 64 355.492 83.973 391.759 120.239C428.027 156.505 448 204.719 448 256C448 307.285 428.027 355.501 391.761 391.765C355.494 428.029 307.275 448 255.988 448C204.707 448 156.495 428.029 120.233 391.766C103.821 375.354 90.7601 356.486 81.3621 336H46.7251C78.9311 420.201 160.471 480 255.989 480C379.703 480 480 379.715 480 256C480 132.298 379.703 32 255.988 32Z" fill="white"/>
<path d="M206.863 323.883L229.49 346.51L320 256L229.49 165.49L206.862 188.118L258.745 240H32V272H258.745L206.863 323.883Z" fill="white"/>
</svg>
