<svg width="45" height="45" viewBox="0 0 45 45" fill="none" xmlns="http://www.w3.org/2000/svg">
<path d="M33.6357 29.2694L35.9085 31.5422L44.9999 22.4508L35.9085 13.3594L33.6356 15.6323L38.847 20.8436H16.0713V24.0579H38.847L33.6357 29.2694Z" fill="white"/>
<path d="M36.1096 36.1372C32.4672 39.7797 27.6246 41.7857 22.4735 41.7857C17.3219 41.7857 12.4785 39.7797 8.83567 36.1371C5.19278 32.4945 3.21429 27.6514 3.21429 22.5C3.21429 17.349 5.19278 12.5061 8.83577 8.86329C12.4787 5.2205 17.322 3.21429 22.4735 3.21429C27.6243 3.21429 32.467 5.2205 36.1096 8.86319C36.3621 9.11634 36.6078 9.37633 36.8462 9.64286H40.9374C36.872 3.81415 30.1185 0 22.4735 0C10.0468 0 0 10.0746 0 22.5C0 34.9267 10.0468 45 22.4735 45C30.1187 45 36.8725 41.186 40.9377 35.3571H36.8466C36.6081 35.6239 36.3623 35.884 36.1096 36.1372Z" fill="white"/>
</svg>
