<svg width="456" height="456" viewBox="0 0 456 456" fill="none" xmlns="http://www.w3.org/2000/svg">
<g filter="url(#filter0_d_348:214)">
<path d="M338.863 291.883L361.49 314.51L452 224L361.49 133.49L338.862 156.118L390.745 208H164V240H390.745L338.863 291.883Z" fill="white"/>
<path d="M363.491 359.766C327.229 396.029 279.018 416 227.736 416C176.449 416 128.23 396.029 91.964 359.765C55.697 323.501 36 275.285 36 224C36 172.719 55.697 124.505 91.965 88.239C128.232 51.973 176.45 32 227.736 32C279.015 32 327.227 51.973 363.491 88.238C366.005 90.7583 368.451 93.3466 370.824 96H411.555C371.081 37.972 303.846 0 227.736 0C104.021 0 4 100.298 4 224C4 347.715 104.021 448 227.736 448C303.848 448 371.086 410.03 411.558 352H370.828C368.454 354.655 366.007 357.245 363.491 359.766V359.766Z" fill="white"/>
</g>
<defs>
<filter id="filter0_d_348:214" x="0" y="0" width="456" height="456" filterUnits="userSpaceOnUse" color-interpolation-filters="sRGB">
<feFlood flood-opacity="0" result="BackgroundImageFix"/>
<feColorMatrix in="SourceAlpha" type="matrix" values="0 0 0 0 0 0 0 0 0 0 0 0 0 0 0 0 0 0 127 0" result="hardAlpha"/>
<feOffset dy="4"/>
<feGaussianBlur stdDeviation="2"/>
<feComposite in2="hardAlpha" operator="out"/>
<feColorMatrix type="matrix" values="0 0 0 0 0 0 0 0 0 0 0 0 0 0 0 0 0 0 0.25 0"/>
<feBlend mode="normal" in2="BackgroundImageFix" result="effect1_dropShadow_348:214"/>
<feBlend mode="normal" in="SourceGraphic" in2="effect1_dropShadow_348:214" result="shape"/>
</filter>
</defs>
</svg>
