<svg width="30" height="31" viewBox="0 0 30 31" fill="none" xmlns="http://www.w3.org/2000/svg">
<path d="M15.0015 12.2574C14.5679 12.2574 14.1386 12.3438 13.738 12.5118C13.3375 12.6797 12.9735 12.9259 12.6669 13.2362C12.3604 13.5465 12.1172 13.9149 11.9513 14.3203C11.7853 14.7258 11.7 15.1603 11.7 15.5992C11.7 16.038 11.7853 16.4725 11.9513 16.878C12.1172 17.2834 12.3604 17.6518 12.6669 17.9621C12.9735 18.2724 13.3375 18.5186 13.738 18.6865C14.1386 18.8545 14.5679 18.9409 15.0015 18.9409C15.8771 18.9407 16.7167 18.5884 17.3357 17.9616C17.9548 17.3348 18.3024 16.4847 18.3022 15.5984C18.302 14.7121 17.954 13.8622 17.3347 13.2356C16.7154 12.6091 15.8756 12.2572 15 12.2574H15.0015ZM4.50145 12.2574C4.06789 12.2574 3.63858 12.3438 3.23802 12.5118C2.83747 12.6797 2.47351 12.9259 2.16694 13.2362C1.86037 13.5465 1.61718 13.9149 1.45126 14.3203C1.28535 14.7258 1.19995 15.1603 1.19995 15.5992C1.19995 16.038 1.28535 16.4725 1.45126 16.878C1.61718 17.2834 1.86037 17.6518 2.16694 17.9621C2.47351 18.2724 2.83747 18.5186 3.23802 18.6865C3.63858 18.8545 4.06789 18.9409 4.50145 18.9409C5.37706 18.9407 6.21673 18.5884 6.83574 17.9616C7.45476 17.3348 7.8024 16.4847 7.8022 15.5984C7.802 14.7121 7.45398 13.8622 6.83468 13.2356C6.21539 12.6091 5.37556 12.2572 4.49995 12.2574H4.50145ZM25.5015 12.2574C25.0679 12.2574 24.6386 12.3438 24.238 12.5118C23.8375 12.6797 23.4735 12.9259 23.1669 13.2362C22.8604 13.5465 22.6172 13.9149 22.4513 14.3203C22.2853 14.7258 22.2 15.1603 22.2 15.5992C22.2 16.038 22.2853 16.4725 22.4513 16.878C22.6172 17.2834 22.8604 17.6518 23.1669 17.9621C23.4735 18.2724 23.8375 18.5186 24.238 18.6865C24.6386 18.8545 25.0679 18.9409 25.5015 18.9409C26.3771 18.9407 27.2167 18.5884 27.8357 17.9616C28.4548 17.3348 28.8024 16.4847 28.8022 15.5984C28.802 14.7121 28.454 13.8622 27.8347 13.2356C27.2154 12.6091 26.3756 12.2572 25.5 12.2574H25.5015Z" fill="#808080"/>
</svg>
