<svg width="26" height="26" viewBox="0 0 26 26" fill="none" xmlns="http://www.w3.org/2000/svg">
<path d="M7.9 14.8371C9.6625 14.8371 11.075 16.2634 11.075 18.0384V22.2996C11.075 24.0621 9.6625 25.4996 7.9 25.4996H3.675C1.925 25.4996 0.5 24.0621 0.5 22.2996V18.0384C0.5 16.2634 1.925 14.8371 3.675 14.8371H7.9ZM22.3251 14.8371C24.0751 14.8371 25.5001 16.2634 25.5001 18.0384V22.2996C25.5001 24.0621 24.0751 25.4996 22.3251 25.4996H18.1001C16.3376 25.4996 14.9251 24.0621 14.9251 22.2996V18.0384C14.9251 16.2634 16.3376 14.8371 18.1001 14.8371H22.3251ZM7.9 0.5C9.6625 0.5 11.075 1.9375 11.075 3.70125V7.9625C11.075 9.7375 9.6625 11.1625 7.9 11.1625H3.675C1.925 11.1625 0.5 9.7375 0.5 7.9625V3.70125C0.5 1.9375 1.925 0.5 3.675 0.5H7.9ZM22.3251 0.5C24.0751 0.5 25.5001 1.9375 25.5001 3.70125V7.9625C25.5001 9.7375 24.0751 11.1625 22.3251 11.1625H18.1001C16.3376 11.1625 14.9251 9.7375 14.9251 7.9625V3.70125C14.9251 1.9375 16.3376 0.5 18.1001 0.5H22.3251Z" fill="#333333"/>
</svg>
