<svg width="12" height="15" viewBox="0 0 12 15" fill="none" xmlns="http://www.w3.org/2000/svg">
<path d="M6 15C6.825 15 7.5 14.3077 7.5 13.4615H4.5C4.5 14.3077 5.175 15 6 15ZM10.5 10.3846V6.53846C10.5 4.17692 9.2775 2.2 7.125 1.67692V1.15385C7.125 0.515385 6.6225 0 6 0C5.3775 0 4.875 0.515385 4.875 1.15385V1.67692C2.73 2.2 1.5 4.16923 1.5 6.53846V10.3846L0 11.9231V12.6923H12V11.9231L10.5 10.3846ZM9 11.1538H3V6.53846C3 4.63077 4.1325 3.07692 6 3.07692C7.8675 3.07692 9 4.63077 9 6.53846V11.1538Z" fill="white"/>
</svg>
