<svg width="55" height="55" viewBox="0 0 55 55" fill="none" xmlns="http://www.w3.org/2000/svg">
<circle cx="27.5" cy="27.5" r="27.5" fill="#333333"/>
<path d="M22.6667 19C21.1939 19 20 20.1513 20 21.5714V34.4286C20 35.8488 21.1939 37 22.6667 37C24.1394 37 25.3333 35.8488 25.3333 34.4286V21.5714C25.3333 20.1513 24.1394 19 22.6667 19ZM33.3333 19C31.8605 19 30.6667 20.1513 30.6667 21.5714V34.4286C30.6667 35.8488 31.8605 37 33.3333 37C34.8061 37 36 35.8488 36 34.4286V21.5714C36 20.1513 34.8061 19 33.3333 19Z" fill="white"/>
</svg>
