<svg width="512" height="512" xmlns="http://www.w3.org/2000/svg" role="img" class="svg-inline--fa fa-list-ul" data-icon="list-ul" data-prefix="fas" focusable="false" aria-hidden="true">

 <g>
  <title>Layer 1</title>
  <path id="svg_1" d="m48,208c-26.51,0 -48,21.5 -48,48s21.49,48 48,48s48,-21.5 48,-48s-21.49,-48 -48,-48zm0,160c-26.51,0 -48,21.5 -48,48s21.49,48 48,48s48,-21.5 48,-48s-21.49,-48 -48,-48zm0,-320c-26.51,0 -48,21.49 -48,48s21.49,48 48,48s48,-21.5 48,-48s-21.49,-48 -48,-48zm144,80l288,0c17.67,0 32,-14.33 32,-31.1s-14.3,-32.9 -32,-32.9l-288,0c-17.7,0 -32,14.33 -32,31.1s14.3,32.9 32,32.9zm288,96l-288,0c-17.7,0 -32,14.3 -32,32s14.33,32 32,32l288,0c17.67,0 32,-14.33 32,-32s-14.3,-32 -32,-32zm0,160l-288,0c-17.67,0 -32,14.33 -32,32s14.33,32 32,32l288,0c17.67,0 32,-14.33 32,-32s-14.3,-32 -32,-32z" fill="#868686"/>
 </g>
</svg>