<svg width="30" height="25" viewBox="0 0 30 25" fill="none" xmlns="http://www.w3.org/2000/svg">
<path d="M14.9953 15.625C17.6864 15.625 19.8281 13.3516 19.8281 10.5469C19.8281 7.74219 17.6466 5.46875 14.9953 5.46875C12.3042 5.46875 10.1625 7.74219 10.1625 10.5469C10.1203 13.3496 12.3047 15.625 14.9953 15.625ZM17.3391 17.1875H12.6609C8.98125 17.1875 6 20.1025 6 23.6963C6 24.4189 6.59531 25 7.33125 25H22.6688C23.4047 25 24 24.4189 24 23.6963C24 20.1025 21.0187 17.1875 17.3391 17.1875ZM24 7.8125C26.0709 7.8125 27.75 6.06348 27.75 3.90625C27.75 1.74902 26.0719 0 24 0C21.9291 0 20.25 1.74902 20.25 3.90625C20.25 6.06348 21.9281 7.8125 24 7.8125ZM8.62031 10.5469C8.62031 10.2808 8.66636 10.0278 8.69573 9.77002C8.18438 9.47754 7.62187 9.375 7.02656 9.375H4.12875C1.84875 9.375 0 11.416 0 13.9307C0 14.4336 0.369703 14.8438 0.825938 14.8438H10.1775C9.22031 13.6816 8.62031 12.1924 8.62031 10.5469ZM6 7.8125C8.07094 7.8125 9.75 6.06348 9.75 3.90625C9.75 1.74902 8.07188 0 6 0C3.92906 0 2.25 1.74902 2.25 3.90625C2.25 6.06348 3.92906 7.8125 6 7.8125ZM25.8703 9.375H22.9716C22.3716 9.375 21.8053 9.52329 21.2906 9.77734C21.3188 10.0342 21.3656 10.2832 21.3656 10.5469C21.3656 12.1929 20.7666 13.6821 19.8113 14.8438H29.1722C29.6297 14.8438 30 14.4336 30 13.9307C30 11.416 28.1531 9.375 25.8703 9.375Z" fill="white"/>
</svg>
