<svg width="30" height="30" viewBox="0 0 30 30" fill="none" xmlns="http://www.w3.org/2000/svg">
<path d="M14.9953 18.75C17.6864 18.75 19.8281 16.0219 19.8281 12.6562C19.8281 9.29063 17.6466 6.5625 14.9953 6.5625C12.3042 6.5625 10.1625 9.29063 10.1625 12.6562C10.1203 16.0195 12.3047 18.75 14.9953 18.75ZM17.3391 20.625H12.6609C8.98125 20.625 6 24.123 6 28.4355C6 29.3027 6.59531 30 7.33125 30H22.6688C23.4047 30 24 29.3027 24 28.4355C24 24.123 21.0187 20.625 17.3391 20.625ZM24 9.375C26.0709 9.375 27.75 7.27617 27.75 4.6875C27.75 2.09883 26.0719 0 24 0C21.9291 0 20.25 2.09883 20.25 4.6875C20.25 7.27617 21.9281 9.375 24 9.375ZM8.62031 12.6562C8.62031 12.337 8.66636 12.0334 8.69573 11.724C8.18438 11.373 7.62187 11.25 7.02656 11.25H4.12875C1.84875 11.25 0 13.6992 0 16.7168C0 17.3203 0.369703 17.8125 0.825938 17.8125H10.1775C9.22031 16.418 8.62031 14.6309 8.62031 12.6562ZM6 9.375C8.07094 9.375 9.75 7.27617 9.75 4.6875C9.75 2.09883 8.07188 0 6 0C3.92906 0 2.25 2.09883 2.25 4.6875C2.25 7.27617 3.92906 9.375 6 9.375ZM25.8703 11.25H22.9716C22.3716 11.25 21.8053 11.4279 21.2906 11.7328C21.3188 12.041 21.3656 12.3398 21.3656 12.6562C21.3656 14.6314 20.7666 16.4186 19.8113 17.8125H29.1722C29.6297 17.8125 30 17.3203 30 16.7168C30 13.6992 28.1531 11.25 25.8703 11.25Z" fill="white"/>
</svg>
