<svg width="26" height="26" viewBox="0 0 26 26" fill="none" xmlns="http://www.w3.org/2000/svg">
<path fill-rule="evenodd" clip-rule="evenodd" d="M13 25.5428C19.9035 25.5428 25.5 19.878 25.5 12.8903C25.5 5.90257 19.9035 0.237885 13 0.237885C6.09644 0.237885 0.5 5.90257 0.5 12.8903C0.5 19.878 6.09644 25.5428 13 25.5428ZM14.25 6.5641C14.25 5.86533 13.6904 5.29886 13 5.29886C12.3096 5.29886 11.75 5.86533 11.75 6.5641V12.3663C11.75 13.0373 12.0134 13.681 12.4823 14.1556L15.8661 17.5807C16.3542 18.0748 17.1458 18.0748 17.6339 17.5807C18.122 17.0866 18.122 16.2855 17.6339 15.7914L14.25 12.3663V6.5641Z" fill="#808080"/>
</svg>
