<svg width="300" height="50" viewBox="0 0 300 50" fill="none" xmlns="http://www.w3.org/2000/svg">
<rect width="300" height="50" rx="10" fill="url(#paint0_radial)"/>
<path d="M131.916 31.3593C130.772 31.3593 129.672 31.176 128.616 30.8093C127.575 30.4426 126.768 29.9586 126.196 29.3573L126.834 28.1033C127.391 28.6606 128.132 29.1153 129.056 29.4673C129.98 29.8046 130.933 29.9733 131.916 29.9733C133.295 29.9733 134.329 29.724 135.018 29.2253C135.707 28.712 136.052 28.052 136.052 27.2453C136.052 26.6293 135.861 26.138 135.48 25.7713C135.113 25.4046 134.659 25.126 134.116 24.9353C133.573 24.73 132.818 24.51 131.85 24.2753C130.691 23.982 129.767 23.7033 129.078 23.4393C128.389 23.1606 127.795 22.7426 127.296 22.1853C126.812 21.628 126.57 20.8726 126.57 19.9193C126.57 19.142 126.775 18.438 127.186 17.8073C127.597 17.162 128.227 16.6486 129.078 16.2673C129.929 15.886 130.985 15.6953 132.246 15.6953C133.126 15.6953 133.984 15.82 134.82 16.0693C135.671 16.304 136.404 16.634 137.02 17.0593L136.47 18.3573C135.825 17.932 135.135 17.6166 134.402 17.4113C133.669 17.1913 132.95 17.0813 132.246 17.0813C130.897 17.0813 129.877 17.3453 129.188 17.8733C128.513 18.3866 128.176 19.054 128.176 19.8753C128.176 20.4913 128.359 20.99 128.726 21.3713C129.107 21.738 129.577 22.024 130.134 22.2293C130.706 22.42 131.469 22.6326 132.422 22.8673C133.551 23.146 134.461 23.4246 135.15 23.7033C135.854 23.9673 136.448 24.378 136.932 24.9353C137.416 25.478 137.658 26.2186 137.658 27.1573C137.658 27.9346 137.445 28.646 137.02 29.2913C136.609 29.922 135.971 30.428 135.106 30.8093C134.241 31.176 133.177 31.3593 131.916 31.3593ZM144.923 19.5673C146.434 19.5673 147.593 19.9486 148.399 20.7113C149.206 21.4593 149.609 22.574 149.609 24.0553V31.2273H148.113V29.4233C147.761 30.0246 147.241 30.494 146.551 30.8313C145.877 31.1686 145.07 31.3373 144.131 31.3373C142.841 31.3373 141.814 31.0293 141.051 30.4133C140.289 29.7973 139.907 28.9833 139.907 27.9713C139.907 26.9886 140.259 26.1966 140.963 25.5953C141.682 24.994 142.819 24.6933 144.373 24.6933H148.047V23.9893C148.047 22.992 147.769 22.2366 147.211 21.7233C146.654 21.1953 145.84 20.9313 144.769 20.9313C144.036 20.9313 143.332 21.056 142.657 21.3053C141.983 21.54 141.403 21.87 140.919 22.2953L140.215 21.1293C140.802 20.6306 141.506 20.2493 142.327 19.9853C143.149 19.7066 144.014 19.5673 144.923 19.5673ZM144.373 30.1053C145.253 30.1053 146.009 29.9073 146.639 29.5113C147.27 29.1006 147.739 28.514 148.047 27.7513V25.8593H144.417C142.437 25.8593 141.447 26.5486 141.447 27.9273C141.447 28.602 141.704 29.1373 142.217 29.5333C142.731 29.9146 143.449 30.1053 144.373 30.1053ZM163.361 19.6553L158.213 31.2273H156.607L151.481 19.6553H153.109L157.443 29.5113L161.821 19.6553H163.361ZM175.315 25.9253H165.635C165.723 27.128 166.185 28.1033 167.021 28.8513C167.857 29.5846 168.913 29.9513 170.189 29.9513C170.907 29.9513 171.567 29.8266 172.169 29.5773C172.77 29.3133 173.291 28.932 173.731 28.4333L174.611 29.4453C174.097 30.0613 173.452 30.5306 172.675 30.8533C171.912 31.176 171.069 31.3373 170.145 31.3373C168.957 31.3373 167.901 31.088 166.977 30.5893C166.067 30.076 165.356 29.372 164.843 28.4773C164.329 27.5826 164.073 26.5706 164.073 25.4413C164.073 24.312 164.315 23.3 164.799 22.4053C165.297 21.5106 165.972 20.814 166.823 20.3153C167.688 19.8166 168.656 19.5673 169.727 19.5673C170.797 19.5673 171.758 19.8166 172.609 20.3153C173.459 20.814 174.127 21.5106 174.611 22.4053C175.095 23.2853 175.337 24.2973 175.337 25.4413L175.315 25.9253ZM169.727 20.9093C168.612 20.9093 167.673 21.2686 166.911 21.9873C166.163 22.6913 165.737 23.6153 165.635 24.7593H173.841C173.738 23.6153 173.305 22.6913 172.543 21.9873C171.795 21.2686 170.856 20.9093 169.727 20.9093Z" fill="white"/>
<defs>
<radialGradient id="paint0_radial" cx="0" cy="0" r="1" gradientUnits="userSpaceOnUse" gradientTransform="translate(81.75 128.409) rotate(-57.3647) scale(204.435 1517.54)">
<stop stop-color="#890084"/>
<stop offset="1" stop-color="#CD0138"/>
</radialGradient>
</defs>
</svg>
