<svg width="300" height="50" viewBox="0 0 300 50" fill="none" xmlns="http://www.w3.org/2000/svg">
<rect width="300" height="50" rx="10" fill="url(#paint0_radial)"/>
<path d="M119.521 31.3593C118.377 31.3593 117.277 31.176 116.221 30.8093C115.179 30.4426 114.373 29.9586 113.801 29.3573L114.439 28.1033C114.996 28.6606 115.737 29.1153 116.661 29.4673C117.585 29.8046 118.538 29.9733 119.521 29.9733C120.899 29.9733 121.933 29.724 122.623 29.2253C123.312 28.712 123.657 28.052 123.657 27.2453C123.657 26.6293 123.466 26.138 123.085 25.7713C122.718 25.4046 122.263 25.126 121.721 24.9353C121.178 24.73 120.423 24.51 119.455 24.2753C118.296 23.982 117.372 23.7033 116.683 23.4393C115.993 23.1606 115.399 22.7426 114.901 22.1853C114.417 21.628 114.175 20.8726 114.175 19.9193C114.175 19.142 114.38 18.438 114.791 17.8073C115.201 17.162 115.832 16.6486 116.683 16.2673C117.533 15.886 118.589 15.6953 119.851 15.6953C120.731 15.6953 121.589 15.82 122.425 16.0693C123.275 16.304 124.009 16.634 124.625 17.0593L124.075 18.3573C123.429 17.932 122.74 17.6166 122.007 17.4113C121.273 17.1913 120.555 17.0813 119.851 17.0813C118.501 17.0813 117.482 17.3453 116.793 17.8733C116.118 18.3866 115.781 19.054 115.781 19.8753C115.781 20.4913 115.964 20.99 116.331 21.3713C116.712 21.738 117.181 22.024 117.739 22.2293C118.311 22.42 119.073 22.6326 120.027 22.8673C121.156 23.146 122.065 23.4246 122.755 23.7033C123.459 23.9673 124.053 24.378 124.537 24.9353C125.021 25.478 125.263 26.2186 125.263 27.1573C125.263 27.9346 125.05 28.646 124.625 29.2913C124.214 29.922 123.576 30.428 122.711 30.8093C121.845 31.176 120.782 31.3593 119.521 31.3593ZM128.48 19.6553H130.042V31.2273H128.48V19.6553ZM129.272 17.1253C128.949 17.1253 128.678 17.0153 128.458 16.7953C128.238 16.5753 128.128 16.3113 128.128 16.0033C128.128 15.71 128.238 15.4533 128.458 15.2333C128.678 15.0133 128.949 14.9033 129.272 14.9033C129.594 14.9033 129.866 15.0133 130.086 15.2333C130.306 15.4386 130.416 15.688 130.416 15.9813C130.416 16.304 130.306 16.5753 130.086 16.7953C129.866 17.0153 129.594 17.1253 129.272 17.1253ZM145.102 19.6553V29.8193C145.102 31.7846 144.618 33.2366 143.65 34.1753C142.697 35.1286 141.252 35.6053 139.316 35.6053C138.245 35.6053 137.226 35.444 136.258 35.1213C135.305 34.8133 134.527 34.3806 133.926 33.8233L134.718 32.6353C135.275 33.134 135.95 33.5226 136.742 33.8013C137.549 34.08 138.392 34.2193 139.272 34.2193C140.739 34.2193 141.817 33.8746 142.506 33.1853C143.195 32.5106 143.54 31.4546 143.54 30.0173V28.5433C143.056 29.2766 142.418 29.834 141.626 30.2153C140.849 30.5966 139.983 30.7873 139.03 30.7873C137.945 30.7873 136.955 30.5526 136.06 30.0833C135.18 29.5993 134.483 28.932 133.97 28.0813C133.471 27.216 133.222 26.2406 133.222 25.1553C133.222 24.07 133.471 23.102 133.97 22.2513C134.483 21.4006 135.18 20.7406 136.06 20.2713C136.94 19.802 137.93 19.5673 139.03 19.5673C140.013 19.5673 140.9 19.7653 141.692 20.1613C142.484 20.5573 143.122 21.1293 143.606 21.8773V19.6553H145.102ZM139.184 29.4013C140.02 29.4013 140.775 29.2253 141.45 28.8733C142.125 28.5066 142.645 28.0006 143.012 27.3553C143.393 26.71 143.584 25.9766 143.584 25.1553C143.584 24.334 143.393 23.608 143.012 22.9773C142.645 22.332 142.125 21.8333 141.45 21.4813C140.79 21.1146 140.035 20.9313 139.184 20.9313C138.348 20.9313 137.593 21.1073 136.918 21.4593C136.258 21.8113 135.737 22.31 135.356 22.9553C134.989 23.6006 134.806 24.334 134.806 25.1553C134.806 25.9766 134.989 26.71 135.356 27.3553C135.737 28.0006 136.258 28.5066 136.918 28.8733C137.593 29.2253 138.348 29.4013 139.184 29.4013ZM155.366 19.5673C156.818 19.5673 157.969 19.9926 158.82 20.8433C159.685 21.6793 160.118 22.904 160.118 24.5173V31.2273H158.556V24.6713C158.556 23.4686 158.255 22.552 157.654 21.9213C157.053 21.2906 156.195 20.9753 155.08 20.9753C153.833 20.9753 152.843 21.3493 152.11 22.0973C151.391 22.8306 151.032 23.85 151.032 25.1553V31.2273H149.47V19.6553H150.966V21.7893C151.391 21.0853 151.978 20.5426 152.726 20.1613C153.489 19.7653 154.369 19.5673 155.366 19.5673ZM170.116 19.6553H171.678V31.2273H170.116V19.6553ZM170.908 17.1253C170.586 17.1253 170.314 17.0153 170.094 16.7953C169.874 16.5753 169.764 16.3113 169.764 16.0033C169.764 15.71 169.874 15.4533 170.094 15.2333C170.314 15.0133 170.586 14.9033 170.908 14.9033C171.231 14.9033 171.502 15.0133 171.722 15.2333C171.942 15.4386 172.052 15.688 172.052 15.9813C172.052 16.304 171.942 16.5753 171.722 16.7953C171.502 17.0153 171.231 17.1253 170.908 17.1253ZM181.921 19.5673C183.373 19.5673 184.524 19.9926 185.375 20.8433C186.24 21.6793 186.673 22.904 186.673 24.5173V31.2273H185.111V24.6713C185.111 23.4686 184.81 22.552 184.209 21.9213C183.607 21.2906 182.749 20.9753 181.635 20.9753C180.388 20.9753 179.398 21.3493 178.665 22.0973C177.946 22.8306 177.587 23.85 177.587 25.1553V31.2273H176.025V19.6553H177.521V21.7893C177.946 21.0853 178.533 20.5426 179.281 20.1613C180.043 19.7653 180.923 19.5673 181.921 19.5673Z" fill="white"/>
<defs>
<radialGradient id="paint0_radial" cx="0" cy="0" r="1" gradientUnits="userSpaceOnUse" gradientTransform="translate(81.75 128.409) rotate(-57.3647) scale(204.435 1517.54)">
<stop stop-color="#890084"/>
<stop offset="1" stop-color="#CD0138"/>
</radialGradient>
</defs>
</svg>
