<svg width="300" height="50" viewBox="0 0 300 50" fill="none" xmlns="http://www.w3.org/2000/svg">
<rect width="300" height="50" rx="10" fill="url(#paint0_radial)"/>
<path d="M115.063 31.3593C113.919 31.3593 112.819 31.176 111.763 30.8093C110.721 30.4426 109.915 29.9586 109.343 29.3573L109.981 28.1033C110.538 28.6606 111.279 29.1153 112.203 29.4673C113.127 29.8046 114.08 29.9733 115.063 29.9733C116.441 29.9733 117.475 29.724 118.165 29.2253C118.854 28.712 119.199 28.052 119.199 27.2453C119.199 26.6293 119.008 26.138 118.627 25.7713C118.26 25.4046 117.805 25.126 117.263 24.9353C116.72 24.73 115.965 24.51 114.997 24.2753C113.838 23.982 112.914 23.7033 112.225 23.4393C111.535 23.1606 110.941 22.7426 110.443 22.1853C109.959 21.628 109.717 20.8726 109.717 19.9193C109.717 19.142 109.922 18.438 110.333 17.8073C110.743 17.162 111.374 16.6486 112.225 16.2673C113.075 15.886 114.131 15.6953 115.393 15.6953C116.273 15.6953 117.131 15.82 117.967 16.0693C118.817 16.304 119.551 16.634 120.167 17.0593L119.617 18.3573C118.971 17.932 118.282 17.6166 117.549 17.4113C116.815 17.1913 116.097 17.0813 115.393 17.0813C114.043 17.0813 113.024 17.3453 112.335 17.8733C111.66 18.3866 111.323 19.054 111.323 19.8753C111.323 20.4913 111.506 20.99 111.873 21.3713C112.254 21.738 112.723 22.024 113.281 22.2293C113.853 22.42 114.615 22.6326 115.569 22.8673C116.698 23.146 117.607 23.4246 118.297 23.7033C119.001 23.9673 119.595 24.378 120.079 24.9353C120.563 25.478 120.805 26.2186 120.805 27.1573C120.805 27.9346 120.592 28.646 120.167 29.2913C119.756 29.922 119.118 30.428 118.253 30.8093C117.387 31.176 116.324 31.3593 115.063 31.3593ZM124.022 19.6553H125.584V31.2273H124.022V19.6553ZM124.814 17.1253C124.491 17.1253 124.22 17.0153 124 16.7953C123.78 16.5753 123.67 16.3113 123.67 16.0033C123.67 15.71 123.78 15.4533 124 15.2333C124.22 15.0133 124.491 14.9033 124.814 14.9033C125.136 14.9033 125.408 15.0133 125.628 15.2333C125.848 15.4386 125.958 15.688 125.958 15.9813C125.958 16.304 125.848 16.5753 125.628 16.7953C125.408 17.0153 125.136 17.1253 124.814 17.1253ZM140.644 19.6553V29.8193C140.644 31.7846 140.16 33.2366 139.192 34.1753C138.239 35.1286 136.794 35.6053 134.858 35.6053C133.787 35.6053 132.768 35.444 131.8 35.1213C130.847 34.8133 130.069 34.3806 129.468 33.8233L130.26 32.6353C130.817 33.134 131.492 33.5226 132.284 33.8013C133.091 34.08 133.934 34.2193 134.814 34.2193C136.281 34.2193 137.359 33.8746 138.048 33.1853C138.737 32.5106 139.082 31.4546 139.082 30.0173V28.5433C138.598 29.2766 137.96 29.834 137.168 30.2153C136.391 30.5966 135.525 30.7873 134.572 30.7873C133.487 30.7873 132.497 30.5526 131.602 30.0833C130.722 29.5993 130.025 28.932 129.512 28.0813C129.013 27.216 128.764 26.2406 128.764 25.1553C128.764 24.07 129.013 23.102 129.512 22.2513C130.025 21.4006 130.722 20.7406 131.602 20.2713C132.482 19.802 133.472 19.5673 134.572 19.5673C135.555 19.5673 136.442 19.7653 137.234 20.1613C138.026 20.5573 138.664 21.1293 139.148 21.8773V19.6553H140.644ZM134.726 29.4013C135.562 29.4013 136.317 29.2253 136.992 28.8733C137.667 28.5066 138.187 28.0006 138.554 27.3553C138.935 26.71 139.126 25.9766 139.126 25.1553C139.126 24.334 138.935 23.608 138.554 22.9773C138.187 22.332 137.667 21.8333 136.992 21.4813C136.332 21.1146 135.577 20.9313 134.726 20.9313C133.89 20.9313 133.135 21.1073 132.46 21.4593C131.8 21.8113 131.279 22.31 130.898 22.9553C130.531 23.6006 130.348 24.334 130.348 25.1553C130.348 25.9766 130.531 26.71 130.898 27.3553C131.279 28.0006 131.8 28.5066 132.46 28.8733C133.135 29.2253 133.89 29.4013 134.726 29.4013ZM150.908 19.5673C152.36 19.5673 153.511 19.9926 154.362 20.8433C155.227 21.6793 155.66 22.904 155.66 24.5173V31.2273H154.098V24.6713C154.098 23.4686 153.797 22.552 153.196 21.9213C152.595 21.2906 151.737 20.9753 150.622 20.9753C149.375 20.9753 148.385 21.3493 147.652 22.0973C146.933 22.8306 146.574 23.85 146.574 25.1553V31.2273H145.012V19.6553H146.508V21.7893C146.933 21.0853 147.52 20.5426 148.268 20.1613C149.031 19.7653 149.911 19.5673 150.908 19.5673ZM176.086 19.6553V31.2273H174.59V29.1153C174.18 29.8193 173.615 30.3693 172.896 30.7653C172.178 31.1466 171.356 31.3373 170.432 31.3373C168.922 31.3373 167.726 30.9193 166.846 30.0833C165.981 29.2326 165.548 27.9933 165.548 26.3653V19.6553H167.11V26.2113C167.11 27.4286 167.411 28.3526 168.012 28.9833C168.614 29.614 169.472 29.9293 170.586 29.9293C171.804 29.9293 172.764 29.5626 173.468 28.8293C174.172 28.0813 174.524 27.0473 174.524 25.7273V19.6553H176.086ZM186.423 19.5673C187.509 19.5673 188.491 19.8166 189.371 20.3153C190.251 20.7993 190.941 21.4886 191.439 22.3833C191.938 23.278 192.187 24.2973 192.187 25.4413C192.187 26.6 191.938 27.6266 191.439 28.5213C190.941 29.416 190.251 30.1126 189.371 30.6113C188.506 31.0953 187.523 31.3373 186.423 31.3373C185.485 31.3373 184.634 31.1466 183.871 30.7653C183.123 30.3693 182.507 29.7973 182.023 29.0493V35.4953H180.461V19.6553H181.957V21.9433C182.427 21.1806 183.043 20.594 183.805 20.1833C184.583 19.7726 185.455 19.5673 186.423 19.5673ZM186.313 29.9513C187.12 29.9513 187.853 29.768 188.513 29.4013C189.173 29.02 189.687 28.4846 190.053 27.7953C190.435 27.106 190.625 26.3213 190.625 25.4413C190.625 24.5613 190.435 23.784 190.053 23.1093C189.687 22.42 189.173 21.8846 188.513 21.5033C187.853 21.122 187.12 20.9313 186.313 20.9313C185.492 20.9313 184.751 21.122 184.091 21.5033C183.446 21.8846 182.933 22.42 182.551 23.1093C182.185 23.784 182.001 24.5613 182.001 25.4413C182.001 26.3213 182.185 27.106 182.551 27.7953C182.933 28.4846 183.446 29.02 184.091 29.4013C184.751 29.768 185.492 29.9513 186.313 29.9513Z" fill="white"/>
<defs>
<radialGradient id="paint0_radial" cx="0" cy="0" r="1" gradientUnits="userSpaceOnUse" gradientTransform="translate(81.75 128.409) rotate(-57.3647) scale(204.435 1517.54)">
<stop stop-color="#890084"/>
<stop offset="1" stop-color="#CD0138"/>
</radialGradient>
</defs>
</svg>
