<svg width="30" height="30" viewBox="0 0 30 30" fill="none" xmlns="http://www.w3.org/2000/svg">
<path d="M28.9286 4.6875H23.4121L21.1353 1.3623C20.4978 0.517207 19.5134 0 18.3884 0H11.6116C10.4866 0 9.44196 0.517207 8.86607 1.3623L6.58795 4.6875H1.07143C0.477121 4.6875 0 5.10527 0 5.625V6.5625C0 7.08398 0.477121 7.5 1.07143 7.5H2.14286V26.25C2.14286 28.3213 4.06138 30 6.42857 30H23.5714C25.9386 30 27.8571 28.3213 27.8571 26.25V7.5H28.9286C29.5246 7.5 30 7.08398 30 6.5625V5.625C30 5.10527 29.5246 4.6875 28.9286 4.6875ZM11.5112 2.98125C11.5781 2.87871 11.7121 2.8125 11.8527 2.8125H18.1473C18.2896 2.8125 18.4235 2.87842 18.4905 2.98096L19.6607 4.6875H10.3393L11.5112 2.98125ZM23.5714 27.1875H6.42857C5.83681 27.1875 5.35714 26.7678 5.35714 26.25V7.5H24.6429V26.25C24.6429 26.7656 24.1607 27.1875 23.5714 27.1875ZM15 24.375C15.5922 24.375 16.0714 23.9557 16.0714 23.4375V11.25C16.0714 10.7318 15.5922 10.3125 15 10.3125C14.4078 10.3125 13.9286 10.7344 13.9286 11.25V23.4375C13.9286 23.9531 14.4107 24.375 15 24.375ZM9.64286 24.375C10.2321 24.375 10.7143 23.9531 10.7143 23.4375V11.25C10.7143 10.7318 10.2351 10.3125 9.64286 10.3125C9.05062 10.3125 8.57143 10.7344 8.57143 11.25V23.4375C8.57143 23.9531 9.05357 24.375 9.64286 24.375ZM20.3571 24.375C20.9494 24.375 21.4286 23.9557 21.4286 23.4375V11.25C21.4286 10.7318 20.9494 10.3125 20.3571 10.3125C19.7649 10.3125 19.2857 10.7344 19.2857 11.25V23.4375C19.2857 23.9531 19.7679 24.375 20.3571 24.375Z" fill="#CD0138"/>
</svg>
