<svg width="24" height="24" viewBox="0 0 24 24" fill="none" xmlns="http://www.w3.org/2000/svg">
<path fill-rule="evenodd" clip-rule="evenodd" d="M12.6328 3.5039C12.4779 3.50927 12.3285 3.5625 12.2051 3.65625L5.11816 9.00293H2.24707C2.04816 9.00295 1.85741 9.08197 1.71676 9.22262C1.57611 9.36327 1.49709 9.55402 1.49707 9.75293V15.252C1.49709 15.4509 1.57611 15.6416 1.71676 15.7823C1.85741 15.9229 2.04816 16.0019 2.24707 16.002H5.11816L12.2051 21.3516C12.3163 21.4353 12.4487 21.4864 12.5874 21.4992C12.7261 21.512 12.8656 21.4859 12.9903 21.4238C13.115 21.3618 13.22 21.2663 13.2934 21.1479C13.3669 21.0296 13.406 20.8932 13.4062 20.7539V4.2539C13.4063 4.15341 13.3861 4.05394 13.347 3.96139C13.3078 3.86883 13.2505 3.78509 13.1783 3.71514C13.1062 3.64518 13.0207 3.59043 12.927 3.55415C12.8333 3.51786 12.7333 3.50077 12.6328 3.5039ZM11.9062 5.75976V19.251L5.82129 14.6572C5.69144 14.5588 5.53306 14.5053 5.37012 14.5049H2.99707V10.5059H5.37012C5.53306 10.5054 5.69144 10.452 5.82129 10.3535L11.9062 5.75976ZM15.7529 8.69531C15.6042 8.69594 15.4589 8.74079 15.3357 8.82416C15.2125 8.90754 15.1169 9.02567 15.061 9.16354C15.0051 9.3014 14.9914 9.45278 15.0218 9.59842C15.0521 9.74406 15.1251 9.87739 15.2314 9.98144L17.6953 12.4453L15.2314 14.9062C15.1595 14.9754 15.102 15.0581 15.0624 15.1497C15.0228 15.2413 15.0019 15.3399 15.0009 15.4397C14.9999 15.5395 15.0188 15.6384 15.0565 15.7308C15.0942 15.8232 15.15 15.9071 15.2205 15.9777C15.2911 16.0483 15.375 16.104 15.4674 16.1417C15.5598 16.1795 15.6588 16.1984 15.7586 16.1973C15.8583 16.1963 15.9569 16.1754 16.0485 16.1358C16.1401 16.0962 16.2229 16.0388 16.292 15.9668L18.7559 13.5059L21.2168 15.9668C21.2859 16.0388 21.3687 16.0962 21.4603 16.1358C21.5519 16.1754 21.6504 16.1963 21.7502 16.1973C21.85 16.1984 21.949 16.1795 22.0414 16.1417C22.1338 16.104 22.2177 16.0483 22.2882 15.9777C22.3588 15.9071 22.4146 15.8232 22.4523 15.7308C22.49 15.6384 22.5089 15.5395 22.5079 15.4397C22.5069 15.3399 22.486 15.2413 22.4464 15.1497C22.4068 15.0581 22.3493 14.9754 22.2773 14.9062L19.8164 12.4453L22.2773 9.98144C22.3852 9.87601 22.4587 9.7405 22.4884 9.59263C22.5181 9.44475 22.5025 9.29136 22.4436 9.15249C22.3848 9.01361 22.2854 8.8957 22.1586 8.81415C22.0317 8.73259 21.8832 8.69118 21.7324 8.69531C21.5378 8.70073 21.3529 8.78162 21.2168 8.9209L18.7559 11.3848L16.292 8.9209C16.2218 8.84914 16.1379 8.7922 16.0453 8.75345C15.9527 8.7147 15.8533 8.69493 15.7529 8.69531V8.69531Z" fill="white"/>
</svg>
