<svg width="23" height="20" viewBox="0 0 23 20" fill="none" xmlns="http://www.w3.org/2000/svg">
<path fill-rule="evenodd" clip-rule="evenodd" d="M12.2956 0.000401335C12.126 0.006324 11.9623 0.0650126 11.8272 0.168398L3.99479 6.11613H0.821419C0.603572 6.11615 0.394654 6.20329 0.240612 6.35839C0.0865709 6.51349 2.18076e-05 6.72384 0 6.94319V13.0589C2.18076e-05 13.2783 0.0865709 13.4886 0.240612 13.6437C0.394654 13.7988 0.603572 13.8859 0.821419 13.886H3.99479L11.8272 19.8337C11.949 19.9261 12.094 19.9824 12.2459 19.9965C12.3978 20.0106 12.5506 19.9818 12.6872 19.9134C12.8237 19.845 12.9387 19.7396 13.0191 19.6092C13.0996 19.4787 13.1424 19.3282 13.1427 19.1746V0.827462C13.1428 0.716645 13.1207 0.606948 13.0778 0.504887C13.0349 0.402826 12.9721 0.310482 12.8931 0.233337C12.8141 0.156192 12.7205 0.0958197 12.6178 0.0558052C12.5152 0.0157907 12.4056 -0.00305027 12.2956 0.000401335ZM11.4999 2.48804V17.5141L4.76487 12.3998C4.62266 12.2913 4.4492 12.2323 4.27074 12.2319H1.64284V7.77025H4.27074C4.4492 7.76978 4.62266 7.7108 4.76487 7.60225L11.4999 2.48804ZM18.5269 2.93388C18.347 2.93388 18.172 2.99333 18.029 3.10311C17.8859 3.21288 17.7825 3.36691 17.7348 3.54155C17.6871 3.71618 17.6976 3.90176 17.7647 4.06979C17.8319 4.23783 17.952 4.37902 18.1065 4.4717C20.193 5.81385 21.3749 7.91701 21.3569 10.1254C21.3389 12.3337 20.1227 14.421 18.0135 15.7372C17.8835 15.8155 17.7775 15.9284 17.7073 16.0635C17.6371 16.1987 17.6054 16.3507 17.6156 16.5028C17.6252 16.6464 17.6719 16.7848 17.7509 16.9047C17.83 17.0245 17.9387 17.1215 18.0663 17.186C18.194 17.2506 18.3362 17.2806 18.4788 17.273C18.6215 17.2653 18.7597 17.2204 18.8798 17.1425C21.4152 15.5602 22.9768 12.9523 22.9997 10.1384C23.0227 7.3242 21.5025 4.69418 18.9921 3.07926C18.8552 2.98455 18.693 2.93386 18.5269 2.93388V2.93388ZM15.6166 5.0403C15.4182 5.03899 15.2261 5.10997 15.0757 5.24014C14.9253 5.37031 14.8267 5.55088 14.7981 5.74852C14.7696 5.94615 14.813 6.14752 14.9204 6.31543C15.0278 6.48335 15.1919 6.60649 15.3824 6.66212C16.9966 7.15537 18.0715 8.59967 18.0712 10.2288C18.0709 11.858 16.9937 13.2997 15.3792 13.7923C15.2064 13.8425 15.0548 13.9484 14.9476 14.0937C14.8403 14.239 14.7834 14.4157 14.7856 14.5967C14.787 14.7261 14.8186 14.8534 14.8777 14.9683C14.9369 15.0832 15.0221 15.1825 15.1263 15.2583C15.2306 15.334 15.351 15.384 15.4779 15.4044C15.6049 15.4247 15.7348 15.4148 15.8572 15.3753C18.1379 14.6794 19.7136 12.5952 19.7141 10.2288C19.7145 7.86243 18.1407 5.77579 15.8605 5.07907C15.7816 5.05385 15.6994 5.04078 15.6166 5.0403V5.0403Z" fill="white"/>
</svg>
