<svg width="30" height="32" viewBox="0 0 30 32" fill="none" xmlns="http://www.w3.org/2000/svg">
<path d="M15 14.6449C14.2375 14.6449 13.625 15.2649 13.625 16.0367C13.625 16.8085 14.2375 17.4285 15 17.4285C15.7625 17.4285 16.375 16.8085 16.375 16.0367C16.375 15.2649 15.7625 14.6449 15 14.6449ZM15 3.38425C8.1 3.38425 2.5 9.05254 2.5 16.0367C2.5 23.0208 8.1 28.6891 15 28.6891C21.9 28.6891 27.5 23.0208 27.5 16.0367C27.5 9.05254 21.9 3.38425 15 3.38425ZM17.7375 18.8076L7.5 23.6282L12.2625 13.2658L22.5 8.44522L17.7375 18.8076Z" fill="#808080"/>
</svg>
