<svg width="12" height="12" viewBox="0 0 12 12" fill="none" xmlns="http://www.w3.org/2000/svg">
<path d="M5.75 3.99805C4.64543 3.99805 3.75 4.89348 3.75 5.99805C3.75 7.10262 4.64543 7.99805 5.75 7.99805C6.85457 7.99805 7.75 7.10262 7.75 5.99805C7.75 4.89348 6.85457 3.99805 5.75 3.99805ZM4.75 5.99805C4.75 5.44577 5.19771 4.99805 5.75 4.99805C6.30228 4.99805 6.75 5.44577 6.75 5.99805C6.75 6.55033 6.30228 6.99805 5.75 6.99805C5.19771 6.99805 4.75 6.55033 4.75 5.99805Z" fill="white"/>
<path d="M8.368 2.39638C7.983 2.4663 7.61392 2.21218 7.5437 1.82879L7.28397 0.41301C7.25816 0.27232 7.14961 0.16106 7.00912 0.1313C6.59818 0.04426 6.17685 0 5.75 0C5.32289 0 4.9013 0.04432 4.49013 0.13146C4.3496 0.16125 4.24104 0.27257 4.21529 0.41332L3.95629 1.82885C3.9494 1.86649 3.93942 1.90356 3.92647 1.93965C3.79476 2.30664 3.3892 2.49783 3.02062 2.36668L1.66115 1.88268C1.52603 1.83457 1.37511 1.87236 1.27891 1.97838C0.710051 2.60534 0.278921 3.34513 0.0172012 4.15107C-0.0269488 4.28704 0.0156213 4.4361 0.125021 4.52858L1.22694 5.46011C1.25626 5.4849 1.28352 5.51204 1.30843 5.54125C1.56177 5.83832 1.52528 6.28363 1.22693 6.53588L0.125021 7.4674C0.0156213 7.55988 -0.0269488 7.70894 0.0172012 7.8449C0.278921 8.65085 0.710051 9.39065 1.27891 10.0176C1.37511 10.1236 1.52603 10.1615 1.66115 10.1133L3.02068 9.62925C3.05687 9.61645 3.0941 9.60645 3.13196 9.59955C3.51701 9.52965 3.88608 9.78375 3.9563 10.1671L4.21529 11.5827C4.24104 11.7234 4.3496 11.8347 4.49013 11.8645C4.9013 11.9516 5.32289 11.9959 5.75 11.9959C6.17685 11.9959 6.59818 11.9517 7.00912 11.8646C7.14961 11.8349 7.25816 11.7236 7.28397 11.5829L7.54368 10.1672C7.5506 10.1294 7.56058 10.0925 7.57353 10.0563C7.70524 9.68935 8.1108 9.49815 8.4794 9.62925L9.8388 10.1133C9.974 10.1615 10.1249 10.1236 10.2211 10.0176C10.79 9.39065 11.2211 8.65085 11.4828 7.8449C11.527 7.70894 11.4844 7.55988 11.375 7.4674L10.2731 6.53587C10.2437 6.51108 10.2165 6.48394 10.1916 6.45472C9.9382 6.15765 9.9747 5.71234 10.2731 5.4601L11.375 4.52858C11.4844 4.4361 11.527 4.28704 11.4828 4.15107C11.2211 3.34513 10.79 2.60534 10.2211 1.97838C10.1249 1.87236 9.974 1.83457 9.8388 1.88268L8.4793 2.3667C8.4431 2.37957 8.4059 2.38951 8.368 2.39638ZM1.74863 2.97531L2.68522 3.30875C3.57017 3.62364 4.54872 3.1662 4.86769 2.27745C4.89903 2.19012 4.92324 2.10015 4.93996 2.00883L5.11738 1.03918C5.3257 1.01317 5.53684 1 5.75 1C5.963 1 6.17397 1.01315 6.38214 1.03912L6.56011 2.00922C6.73053 2.93885 7.62266 3.54808 8.5467 3.3803C8.6377 3.36377 8.7275 3.33981 8.8147 3.30878L9.7514 2.97531C10.0064 3.30889 10.2184 3.67281 10.3819 4.05869L9.6274 4.69645C8.9066 5.30592 8.8175 6.38454 9.4307 7.1036C9.4908 7.17414 9.5567 7.23971 9.6275 7.29955L10.3819 7.93729C10.2184 8.32315 10.0064 8.68705 9.7514 9.02065L8.8146 8.68715C7.9297 8.37225 6.95128 8.82975 6.63231 9.71855C6.60096 9.80585 6.57677 9.89585 6.56004 9.98715L6.38214 10.9569C6.17397 10.9829 5.963 10.9959 5.75 10.9959C5.53684 10.9959 5.3257 10.9829 5.11738 10.9567L4.93994 9.98705C4.76965 9.05725 3.87743 8.44785 2.9533 8.61565C2.86227 8.63225 2.7725 8.65615 2.68528 8.68725L1.74863 9.02065C1.49357 8.68705 1.28161 8.32315 1.11814 7.93729L1.87257 7.29953C2.59343 6.69006 2.68254 5.61144 2.06933 4.89238C2.00917 4.82183 1.94332 4.75627 1.87254 4.69643L1.11814 4.05869C1.28161 3.67281 1.49357 3.30889 1.74863 2.97531Z" fill="white"/>
</svg>
